<svg xmlns="http://www.w3.org/2000/svg" xmlns:xlink="http://www.w3.org/1999/xlink" xmlns:inkscape="http://www.inkscape.org/namespaces/inkscape" version="1.1" width="351" height="157" viewBox="0 0 351 157">
<defs>
<path id="font_1_1" d="M.2649994 .37265016H.37799073C.34498597 .22489929 .33599855 .18196106 .33599855 .11508179 .33599855 .100097659 .33599855 .073150638 .34399415 .03919983 .35398866-.0047454836 .36499024-.0107421879 .37998963-.0107421879 .3999939-.0107421879 .42099 .007247925 .42099 .02722168 .42099 .033218385 .42099 .035202028 .4149933 .049179079 .38598634 .12106323 .38598634 .18595886 .38598634 .21391297 .38598634 .26683045 .3929901 .32073976 .4039917 .37265016H.5179901C.5309906 .37265016 .5669861 .37265016 .5669861 .406662 .5669861 .43066407 .54599 .43066407 .5269928 .43066407H.19198609C.16999817 .43066407 .13198853 .43066407 .08799744 .38365174 .052993776 .34469605 .026992798 .29878236 .026992798 .29379273 .026992798 .29278565 .026992798 .28379823 .038986207 .28379823 .04699707 .28379823 .04899597 .28779603 .054992677 .29577638 .10398865 .37265016 .1619873 .37265016 .18199158 .37265016H.23899842C.20698548 .25186158 .15299988 .13105774 .11099243 .04020691 .102996829 .025222779 .102996829 .023223877 .102996829 .016235352 .102996829-.002746582 .11898804-.0107421879 .13198853-.0107421879 .1619873-.0107421879 .16999817 .017242432 .18199158 .05418396 .19599915 .100097659 .19599915 .10209656 .20899964 .15202332L.2649994 .37265016Z"/>
<path id="font_1_3" d="M.43899537 .71199038C.44400025 .72499087 .44400025 .72898867 .44400025 .7299957 .44400025 .7409973 .43499757 .75 .42399598 .75 .4169922 .75 .4099884 .746994 .40699769 .7409973L.05999756-.21200562C.054992677-.2250061 .054992677-.2290039 .054992677-.23001099 .054992677-.24101258 .06399536-.25 .07499695-.25 .08799744-.25 .09098816-.24301148 .09700012-.22601319L.43899537 .71199038Z"/>
<path id="font_2_4" d="M.1269989 .07699585 .23298645 .18003845C.3889923 .31811524 .44898988 .3721466 .44898988 .47216798 .44898988 .5860901 .35899354 .6660156 .23699951 .6660156 .12399292 .6660156 .049987794 .57411196 .049987794 .48516847 .049987794 .4291687 .099990848 .4291687 .102996829 .4291687 .11999512 .4291687 .15499878 .44117738 .15499878 .48217774 .15499878 .5081787 .13699341 .5341797 .101989749 .5341797 .09399414 .5341797 .09199524 .5341797 .08898926 .5331726 .11199951 .59806826 .1659851 .63500979 .22399903 .63500979 .31498719 .63500979 .35798646 .5541382 .35798646 .47216798 .35798646 .39215089 .30799867 .31311036 .25299073 .25108338L.06098938 .036987306C.049987794 .025985718 .049987794 .023986817 .049987794 0H.42099L.44898988 .17404175H.42399598C.4189911 .14402771 .4119873 .1000061 .4019928 .084991458 .394989 .07699585 .32899476 .07699585 .30699159 .07699585H.1269989Z"/>
<path id="font_2_5" d="M.2899933 .35191346C.37199403 .37893678 .42999269 .4490509 .42999269 .52809146 .42999269 .6100464 .34199525 .6660156 .24598694 .6660156 .14498902 .6660156 .068984989 .60606387 .068984989 .53009036 .068984989 .49710084 .09098816 .47808839 .11999512 .47808839 .15098572 .47808839 .17098999 .50009158 .17098999 .5290985 .17098999 .57910159 .12399292 .57910159 .10899353 .57910159 .13999939 .62802127 .20599365 .64100649 .24198914 .64100649 .2829895 .64100649 .33799745 .6190338 .33799745 .5290985 .33799745 .51708987 .33599855 .45906068 .30999757 .4149933 .27999879 .36691285 .24598694 .36390687 .22099304 .36291505 .21299744 .36190797 .18899536 .35990907 .18199158 .35990907 .17399597 .35890199 .16699219 .35791017 .16699219 .3479004 .16699219 .33691407 .17399597 .33691407 .19099427 .33691407H.23498535C.31698609 .33691407 .35398866 .2686615 .35398866 .17037964 .35398866 .034469606 .2849884 .0055389406 .24099732 .0055389406 .19799805 .0055389406 .12298584 .022491456 .08799744 .08137512 .12298584 .07637024 .1539917 .09837341 .1539917 .1363678 .1539917 .17237854 .1269989 .19238281 .09799194 .19238281 .07398987 .19238281 .041992189 .17837525 .041992189 .1343689 .041992189 .043441774 .1349945-.022460938 .24398804-.022460938 .3659973-.022460938 .45700074 .06838989 .45700074 .17037964 .45700074 .252594 .3939972 .33088685 .2899933 .35191346Z"/>
<path id="font_3_1" d="M.6589966 .23046875C.6759949 .23046875 .69400027 .23046875 .69400027 .25045777 .69400027 .27046205 .6759949 .27046205 .6589966 .27046205H.117996219C.100997928 .27046205 .08299255 .27046205 .08299255 .25045777 .08299255 .23046875 .100997928 .23046875 .117996219 .23046875H.6589966Z"/>
<path id="font_2_3" d="M.45999146 .31976319C.45999146 .39982606 .45498658 .47988893 .41999818 .5539398 .37399293 .65000918 .2919922 .6660156 .25 .6660156 .18998719 .6660156 .116989139 .64001467 .07598877 .54693606 .04399109 .47789 .038986207 .39982606 .038986207 .31976319 .038986207 .24472046 .042999269 .15464783 .083999637 .07859802 .1269989-.0024719239 .19999695-.022460938 .24899292-.022460938 .30299378-.022460938 .3789978-.0014648438 .4229889 .09359741 .45498658 .16265869 .45999146 .2407074 .45999146 .31976319M.24899292-.00047302247C.20999146-.00047302247 .15098572 .024551392 .1329956 .12062073 .12199402 .18066406 .12199402 .2727356 .12199402 .3317871 .12199402 .39582826 .12199402 .46188355 .12998963 .5159149 .14898682 .63500979 .22399903 .64401248 .24899292 .64401248 .28199769 .64401248 .34799195 .6259918 .36698915 .52693179 .3769989 .47088624 .3769989 .39482118 .3769989 .3317871 .3769989 .25672914 .3769989 .18867493 .3659973 .12461853 .35099793 .029556275 .2939911-.00047302247 .24899292-.00047302247Z"/>
<path id="font_1_2" d="M.19198609 .052993776C.19198609 .08198547 .16799927 .10598755 .13899231 .10598755 .10998535 .10598755 .085998538 .08198547 .085998538 .052993776 .085998538 .023986817 .10998535 0 .13899231 0 .16799927 0 .19198609 .023986817 .19198609 .052993776Z"/>
<path id="font_2_6" d="M.44898988 .20022583C.44898988 .3193512 .36698915 .41944886 .25898744 .41944886 .21099854 .41944886 .16799927 .40345765 .13198853 .36842347V.5637665C.1519928 .5577698 .18499756 .55078127 .21699524 .55078127 .33999635 .55078127 .4099884 .6417694 .4099884 .6547699 .4099884 .6607666 .40699769 .6657715 .3999939 .6657715 .39898683 .6657715 .39698792 .6657715 .3919983 .66278079 .37199403 .6537781 .32299806 .6337738 .2559967 .6337738 .21598816 .6337738 .16999817 .6407776 .12298584 .6617737 .114990238 .66477969 .11299133 .66477969 .11099243 .66477969 .100997928 .66477969 .100997928 .6567688 .100997928 .6407776V.34439088C.100997928 .32637025 .100997928 .31835938 .114990238 .31835938 .12199402 .31835938 .12399292 .32136537 .12799073 .32736207 .13899231 .3433838 .17599488 .39746095 .25698854 .39746095 .30899049 .39746095 .33399964 .35139466 .34199525 .33337403 .35798646 .29632569 .3600006 .25727845 .3600006 .20722962 .3600006 .17222595 .3600006 .11222839 .33599855 .07035828 .31199647 .031463624 .2749939 .0055389406 .22898865 .0055389406 .1559906 .0055389406 .09899902 .058380128 .08198547 .11723328 .084991458 .1162262 .08799744 .115234378 .09899902 .115234378 .13198853 .115234378 .14898682 .14022827 .14898682 .16423035 .14898682 .18823242 .13198853 .21322632 .09899902 .21322632 .084991458 .21322632 .049987794 .20622254 .049987794 .16023255 .049987794 .07434082 .11898804-.022460938 .23098755-.022460938 .34700013-.022460938 .44898988 .073349 .44898988 .20022583Z"/>
<clipPath id="clip_4">
<path transform="matrix(1.00008,0,0,-1.00006,26.344986,155.38938)" d="M0 0H323.6714V153.58254H0Z"/>
</clipPath>
<path id="font_1_4" d="M.20599365 .3996582H.2999878C.31999208 .3996582 .32998658 .3996582 .32998658 .41966249 .32998658 .43066407 .31999208 .43066407 .3019867 .43066407H.21398926C.25 .5724945 .25498963 .59246829 .25498963 .59846499 .25498963 .61546328 .24299622 .62545779 .22599793 .62545779 .22299195 .62545779 .19499207 .62446597 .18598938 .58947756L.14698792 .43066407H.052993776C.032989503 .43066407 .022994996 .43066407 .022994996 .4116516 .022994996 .3996582 .0309906 .3996582 .050994874 .3996582H.13899231C.066986087 .11608887 .06298828 .099121097 .06298828 .08114624 .06298828 .02722168 .100997928-.0107421879 .15499878-.0107421879 .25698854-.0107421879 .31399537 .13505554 .31399537 .14305115 .31399537 .1530304 .30599977 .1530304 .3019867 .1530304 .29299928 .1530304 .2919922 .15003968 .2869873 .13905335 .24398804 .035217287 .19099427 .011245728 .15699768 .011245728 .13598633 .011245728 .12599182 .024230957 .12599182 .057174684 .12599182 .08114624 .12799073 .088134769 .13198853 .10510254L.20599365 .3996582Z"/>
<path id="font_1_6" d="M.48599244 .38136292C.48999024 .39537049 .48999024 .39736939 .48999024 .40437318 .48999024 .42237855 .47599793 .43138124 .46099855 .43138124 .45098878 .43138124 .43499757 .42536927 .42599488 .41036988 .42399598 .405365 .41600038 .37435914 .4119873 .35635377 .40499879 .33035279 .397995 .30334474 .3919983 .27633668L.34700013 .09628296C.34298707 .08126831 .2999878 .011245728 .23399353 .011245728 .18299866 .011245728 .17199707 .055267335 .17199707 .0922699 .17199707 .1382904 .18899536 .20030213 .22299195 .28833009 .23899842 .3293457 .24299622 .3403473 .24299622 .36035157 .24299622 .405365 .21099854 .4423828 .16099549 .4423828 .06599426 .4423828 .0289917 .29733277 .0289917 .28833009 .0289917 .27833558 .038986207 .27833558 .040985109 .27833558 .050994874 .27833558 .051986696 .28033448 .056991579 .29634095 .083999637 .3903656 .12399292 .42037965 .1579895 .42037965 .1659851 .42037965 .18299866 .42037965 .18299866 .3883667 .18299866 .36335755 .17298889 .3373413 .1659851 .31834413 .12599182 .21231079 .10798645 .1552887 .10798645 .10827637 .10798645 .019256592 .17098999-.0107421879 .22999573-.0107421879 .2689972-.0107421879 .30299378 .0062561037 .33099366 .03425598 .31799317-.017745972 .30599977-.06674194 .2659912-.11973572 .23999024-.15385437 .20199585-.18309021 .1559906-.18309021 .14199829-.18309021 .09700012-.18005371 .07998657-.14074707 .09599304-.14074707 .10899353-.14074707 .12298584-.1287384 .1329956-.11973572 .14299011-.10673523 .14299011-.08773804 .14299011-.056747438 .115997318-.052734376 .10598755-.052734376 .08299255-.052734376 .049987794-.068740848 .049987794-.11773682 .049987794-.16796875 .09399414-.20507813 .1559906-.20507813 .25898744-.20507813 .3619995-.11373901 .3899994-.00074768069L.48599244 .38136292Z"/>
<path id="font_2_1" d="M.33099366-.2400055C.33099366-.23701477 .33099366-.23500061 .31399537-.21800232 .18899536-.0920105 .15699768 .09700012 .15699768 .25 .15699768 .42399598 .19499207 .59799197 .31799317 .72299197 .33099366 .73498538 .33099366 .7369995 .33099366 .73999026 .33099366 .746994 .32699586 .75 .32099916 .75 .31098939 .75 .22099304 .6819916 .1619873 .5549927 .11099243 .44499208 .09899902 .33399964 .09899902 .25 .09899902 .17199707 .10998535 .050994874 .16499329-.06201172 .22499085-.18501282 .31098939-.25 .32099916-.25 .32699586-.25 .33099366-.24700928 .33099366-.2400055Z"/>
<path id="font_2_2" d="M.2889862 .25C.2889862 .32798768 .27799989 .44898988 .22299195 .56199648 .16299439 .68499758 .07699585 .75 .066986087 .75 .06098938 .75 .056991579 .74598696 .056991579 .73999026 .056991579 .7369995 .056991579 .73498538 .07598877 .71699526 .17399597 .6179962 .23098755 .45899964 .23098755 .25 .23098755 .07899475 .19400025-.09700012 .069992069-.2230072 .056991579-.23500061 .056991579-.23701477 .056991579-.2400055 .056991579-.2460022 .06098938-.25 .066986087-.25 .07699585-.25 .16699219-.18200684 .22599793-.055007936 .2769928 .054992677 .2889862 .16600037 .2889862 .25Z"/>
<path id="font_2_7" d="M.68699648 .32714845C.70199587 .32714845 .72099307 .32714845 .72099307 .34713746 .72099307 .36714173 .70199587 .36714173 .6879883 .36714173H.08898926C.07499695 .36714173 .055999757 .36714173 .055999757 .34713746 .055999757 .32714845 .07499695 .32714845 .08999634 .32714845H.68699648M.6879883 .13284302C.70199587 .13284302 .72099307 .13284302 .72099307 .15284729 .72099307 .17285156 .70199587 .17285156 .68699648 .17285156H.08999634C.07499695 .17285156 .055999757 .17285156 .055999757 .15284729 .055999757 .13284302 .07499695 .13284302 .08898926 .13284302H.6879883Z"/>
<path id="font_5_1" d="M.33499146 .63612368C.33499146 .6630554 .33299256 .6640625 .30499269 .6640625 .24099732 .6014404 .1499939 .6004486 .10899353 .6004486V.5644531C.1329956 .5644531 .19898987 .5644531 .2539978 .592453V.08203125C.2539978 .04899597 .2539978 .035995485 .1539917 .035995485H.115997318V0C.13398743 .0009918213 .25698854 .0039978029 .2939911 .0039978029 .32499696 .0039978029 .45098878 .0009918213 .47299195 0V.035995485H.43499757C.33499146 .035995485 .33499146 .04899597 .33499146 .08203125V.63612368Z"/>
<path id="font_5_2" d="M.5049896 .18203736H.47099305C.46798707 .16001892 .45799256 .100997928 .44499208 .09098816 .43699647 .084991458 .3600006 .084991458 .34599305 .084991458H.1619873C.2669983 .17803955 .3019867 .20603943 .3619995 .25306703 .43598939 .312088 .5049896 .374115 .5049896 .46914674 .5049896 .5900879 .39898683 .6640625 .2709961 .6640625 .14698792 .6640625 .06298828 .57710269 .06298828 .4851532 .06298828 .43414308 .10598755 .42915345 .115997318 .42915345 .13999939 .42915345 .16899109 .44615174 .16899109 .48214723 .16899109 .5001526 .1619873 .53515627 .10998535 .53515627 .14099121 .6060791 .20899964 .62805178 .2559967 .62805178 .35598756 .62805178 .4079895 .5501404 .4079895 .46914674 .4079895 .38212586 .34599305 .3130951 .31399537 .27708436L.07299805 .038986207C.06298828 .02999878 .06298828 .027999878 .06298828 0H.47499085L.5049896 .18203736Z"/>
<path id="font_2_10" d="M.20799256 .19424439C.22999573 .19024658 .31199647 .17424011 .31199647 .102249149 .31199647 .051254274 .2769928 .011245728 .19898987 .011245728 .114990238 .011245728 .07899475 .06825256 .05999756 .15324402 .056991579 .1662445 .055999757 .17024231 .04598999 .17024231 .032989503 .17024231 .032989503 .16323853 .032989503 .14524842V.013244629C.032989503-.003753662 .032989503-.0107421879 .04399109-.0107421879 .04899597-.0107421879 .049987794-.009750366 .068984989 .009246826 .070999149 .011245728 .070999149 .013244629 .08898926 .03224182 .1329956-.009750366 .17799378-.0107421879 .19898987-.0107421879 .31399537-.0107421879 .3600006 .056243898 .3600006 .12825012 .3600006 .1812439 .32998658 .21124268 .31799317 .22323609 .2849884 .25523377 .24598694 .26324464 .20399475 .27124024 .147995 .28224183 .08099365 .2952423 .08099365 .35324098 .08099365 .38822938 .10699463 .42922975 .19299317 .42922975 .30299378 .42922975 .30799867 .3392334 .30999757 .3082428 .31098939 .2992401 .31999208 .2992401 .32199098 .2992401 .33499146 .2992401 .33499146 .304245 .33499146 .3232422V.4242401C.33499146 .4412384 .33499146 .4482422 .32398988 .4482422 .31900025 .4482422 .31698609 .4482422 .3039856 .43623353 .30099488 .43223573 .29100038 .42323304 .2869873 .42022706 .24899292 .4482422 .20799256 .4482422 .19299317 .4482422 .070999149 .4482422 .032989503 .38124085 .032989503 .3252411 .032989503 .29023744 .04899597 .26223756 .07598877 .24023438 .10798645 .21424866 .13598633 .2082367 .20799256 .19424439Z"/>
<path id="font_2_8" d="M.1769867 .4423828 .036987306 .43138124V.40037538C.101989749 .40037538 .11099243 .3943634 .11099243 .34532167V.076034549C.11099243 .0309906 .099990848 .0309906 .032989503 .0309906V0C.06498718 .0009918213 .11898804 .0029907227 .14299011 .0029907227 .17799378 .0029907227 .21299744 .0009918213 .24699402 0V.0309906C.18099976 .0309906 .1769867 .035995485 .1769867 .075042728V.4423828M.18099976 .6159363C.18099976 .64793398 .1559906 .6689453 .12799073 .6689453 .09700012 .6689453 .07499695 .64193728 .07499695 .6159363 .07499695 .5889435 .09700012 .5629425 .12799073 .5629425 .1559906 .5629425 .18099976 .5839386 .18099976 .6159363Z"/>
<path id="font_2_9" d="M.10998535 .34429933V.076034549C.10998535 .0309906 .09899902 .0309906 .03199768 .0309906V0C.066986087 .0009918213 .117996219 .0029907227 .14498902 .0029907227 .17098999 .0029907227 .22299195 .0009918213 .25698854 0V.0309906C.18998719 .0309906 .1789856 .0309906 .1789856 .076034549V.2602234C.1789856 .36431886 .25 .42037965 .31399537 .42037965 .3769989 .42037965 .3880005 .36631776 .3880005 .30926515V.076034549C.3880005 .0309906 .3769989 .0309906 .30999757 .0309906V0C.34498597 .0009918213 .3959961 .0029907227 .4229889 .0029907227 .44898988 .0029907227 .5009918 .0009918213 .5349884 0V.0309906C.48298646 .0309906 .45799256 .0309906 .45700074 .061019899V.25221253C.45700074 .3383026 .45700074 .36932374 .42599488 .405365 .4119873 .42237855 .3789978 .4423828 .32099916 .4423828 .24798584 .4423828 .20098877 .39935304 .17298889 .33729554V.4423828L.03199768 .43138124V.40037538C.101989749 .4003601 .10998535 .39335633 .10998535 .34429933Z"/>
<path id="font_1_5" d="M.34999085 .056259157C.36099244 .015258789 .3959961-.0107421879 .43899537-.0107421879 .47399903-.0107421879 .49699403 .012252808 .5130005 .044265748 .5299988 .08027649 .54299929 .14129639 .54299929 .14329529 .54299929 .1532898 .5339966 .1532898 .5309906 .1532898 .5209961 .1532898 .519989 .14929199 .5169983 .13528443 .5029907 .07926941 .48399354 .011245728 .44198609 .011245728 .42099 .011245728 .41099549 .024261475 .41099549 .057266237 .41099549 .07926941 .4229889 .12628174 .43099977 .16130066L.45899964 .2693329C.46199037 .28433229 .47200013 .32234193 .47599793 .3373413 .48098756 .36035157 .4909973 .3983612 .4909973 .40437318 .4909973 .42237855 .47698976 .43138124 .46199037 .43138124 .45700074 .43138124 .43099977 .43037416 .4229889 .3963623 .4039917 .323349 .3600006 .14828491 .34799195 .09527588 .34700013 .091278079 .30699159 .011245728 .23399353 .011245728 .18199158 .011245728 .17199707 .056259157 .17199707 .09327698 .17199707 .14929199 .19999695 .22831726 .22599793 .29733277 .23799134 .3273468 .24299622 .34135438 .24299622 .36035157 .24299622 .405365 .21099854 .4423828 .16099549 .4423828 .06599426 .4423828 .0289917 .29733277 .0289917 .28833009 .0289917 .27833558 .038986207 .27833558 .040985109 .27833558 .050994874 .27833558 .051986696 .28033448 .056991579 .29634095 .08198547 .38336183 .11999512 .42037965 .1579895 .42037965 .16699219 .42037965 .18299866 .41937257 .18299866 .38735963 .18299866 .36335755 .17199707 .3343506 .1659851 .31933595 .1289978 .2203064 .10798645 .15829468 .10798645 .10928345 .10798645 .014251709 .1769867-.0107421879 .23098755-.0107421879 .29699708-.0107421879 .33299256 .03425598 .34999085 .056259157Z"/>
</defs>
<path transform="matrix(1.00008,0,0,-1.00006,26.344986,155.38938)" stroke-width=".3985" stroke-linecap="butt" stroke-miterlimit="10" stroke-linejoin="miter" fill="none" stroke="#d9d9d9" d="M78.21892 0V153.58254M156.43785 0V153.58254M234.65677 0V153.58254M312.87574 0V153.58254"/>
<path transform="matrix(1.00008,0,0,-1.00006,26.344986,155.38938)" stroke-width=".3985" stroke-linecap="butt" stroke-miterlimit="10" stroke-linejoin="miter" fill="none" stroke="#d9d9d9" d="M0 12.79854H323.6714M0 140.784H323.6714"/>
<path transform="matrix(1.00008,0,0,-1.00006,26.344986,155.38938)" stroke-width=".19925" stroke-linecap="butt" stroke-miterlimit="10" stroke-linejoin="miter" fill="none" stroke="#7f807f" d="M78.21892 74.66524V78.91728M156.43785 74.66524V78.91728M234.65677 74.66524V78.91728M312.87574 74.66524V78.91728"/>
<path transform="matrix(1.00008,0,0,-1.00006,26.344986,155.38938)" stroke-width=".19925" stroke-linecap="butt" stroke-miterlimit="10" stroke-linejoin="miter" fill="none" stroke="#7f807f" d="M-2.12585 12.79854H2.12585M-2.12585 140.784H2.12585"/>
<path transform="matrix(1.00008,0,0,-1.00006,26.344986,155.38938)" stroke-width=".3985" stroke-linecap="butt" stroke-miterlimit="10" stroke-linejoin="miter" fill="none" stroke="#000000" d="M0 76.79126H321.6789"/>
<path transform="matrix(1.00008,0,0,-1.00006,348.04963,78.593509)" d="M1.99252 0-1.19551 1.59401 0 0-1.19551-1.59401"/>
<path transform="matrix(1.00008,0,0,-1.00006,26.344986,155.38938)" stroke-width=".3985" stroke-linecap="butt" stroke-miterlimit="10" stroke-linejoin="miter" fill="none" stroke="#000000" d="M0 0V151.59001"/>
<path transform="matrix(0,-1.00006,-1.00008,-0,26.344986,3.790268)" d="M1.99252 0-1.19551 1.59401 0 0-1.19551-1.59401"/>
<use data-text="&#x03c0;" xlink:href="#font_1_1" transform="matrix(9.963397,0,0,-9.963197,96.5696,91.712558)"/>
<use data-text="/" xlink:href="#font_1_3" transform="matrix(9.963397,0,0,-9.963197,102.597469,91.712558)"/>
<use data-text="2" xlink:href="#font_2_4" transform="matrix(9.963397,0,0,-9.963197,107.58749,91.712558)"/>
<use data-text="&#x03c0;" xlink:href="#font_1_1" transform="matrix(9.963397,0,0,-9.963197,179.77725,88.529369)"/>
<use data-text="3" xlink:href="#font_2_5" transform="matrix(9.963397,0,0,-9.963197,250.52892,91.712558)"/>
<use data-text="&#x03c0;" xlink:href="#font_1_1" transform="matrix(9.963397,0,0,-9.963197,255.51032,91.712558)"/>
<use data-text="/" xlink:href="#font_1_3" transform="matrix(9.963397,0,0,-9.963197,261.53819,91.712558)"/>
<use data-text="2" xlink:href="#font_2_4" transform="matrix(9.963397,0,0,-9.963197,266.5292,91.712558)"/>
<use data-text="2" xlink:href="#font_2_4" transform="matrix(9.963397,0,0,-9.963197,333.73658,90.66049)"/>
<use data-text="&#x03c0;" xlink:href="#font_1_1" transform="matrix(9.963397,0,0,-9.963197,338.718,90.66049)"/>
<use data-text="&#x2212;" xlink:href="#font_3_1" transform="matrix(9.963397,0,0,-9.963197,.21789551,145.38578)"/>
<use data-text="0" xlink:href="#font_2_3" transform="matrix(9.963397,0,0,-9.963197,7.966522,145.38578)"/>
<use data-text="." xlink:href="#font_1_2" transform="matrix(9.963397,0,0,-9.963197,12.948914,145.38578)"/>
<use data-text="5" xlink:href="#font_2_6" transform="matrix(9.963397,0,0,-9.963197,15.716141,145.38578)"/>
<use data-text="0" xlink:href="#font_2_3" transform="matrix(9.963397,0,0,-9.963197,7.967514,17.807114)"/>
<use data-text="." xlink:href="#font_1_2" transform="matrix(9.963397,0,0,-9.963197,12.948914,17.807114)"/>
<use data-text="5" xlink:href="#font_2_6" transform="matrix(9.963397,0,0,-9.963197,15.716141,17.807114)"/>
<g clip-path="url(#clip_4)">
<path transform="matrix(1.00008,0,0,-1.00006,26.344986,155.38938)" stroke-width="1.19553" stroke-linecap="butt" stroke-miterlimit="10" stroke-linejoin="miter" fill="none" stroke="#0000ff" d="M0 76.79126H.39206 .78413 1.17621 1.56828 1.96036 2.35243 2.7445 3.13658 3.52866 3.92075 4.31282 4.7049 5.09697 5.48904 5.88112 6.2732 6.66527 7.05734 7.44942 7.84149 8.23357 8.62564 9.01772 9.40979 9.80186 10.19394 10.58601 10.97809 11.37016 11.76225 12.15433 12.5464 12.93848 13.33055 13.72263 14.1147 14.50677 14.89885 15.29092 15.683 16.07507 16.46715 16.8592 17.25128 17.64336 18.03543 18.4275 18.81958 19.21167 19.60374 19.99582 20.3879 20.77997 21.17204 21.56412 21.95619 22.34827 22.74034 23.13242 23.52449 23.91656 24.30864 24.70071 25.09279 25.48486 25.87694 26.26901 26.6611 27.05318 27.44525 27.83733 28.2294 28.62148 29.01355 29.40562 29.7977 30.18977 30.58185 30.97392 31.366 31.75807 32.15015 32.54222 32.9343 33.32635 33.71843 34.1105 34.5026 34.89467 35.28674 35.67882 36.07089 36.46297 36.85504 37.24712 37.63919 38.03127 38.42334 38.81541 39.20749 39.59956 39.99164 40.38371 40.77579 41.16786 41.55994 41.95203 42.3441 42.73618 43.12825 43.52032 43.9124 44.30447 44.69655 45.08862 45.4807 45.87277 46.26485 46.65692 47.049 47.44107 47.83315 48.22522 48.6173 49.00937 49.40144 49.79352 50.1856 50.57767 50.96974 51.36182 51.75389 52.14597 52.53804 52.93011 53.32219 53.71426 54.10634 54.49841 54.89049 55.28256 55.67464 56.06671 56.45879 56.85086 57.24295 57.63503 58.0271 58.41917 58.81125 59.20332 59.5954 59.98747 60.37955 60.77162 61.1637 61.55577 61.94785 62.33992 62.732 63.12407 63.51614 63.90822 64.3003 64.69238 65.08446 65.47653 65.86859 66.26067 66.65274 67.04482 67.43689 67.82896 68.22104 68.61311 69.00519 69.39726 69.78934 70.18141 70.57349 70.96556 71.35764 71.74971 72.14178 72.53387 72.92595 73.31802 73.7101 74.10217 74.49425 74.88632 75.2784 75.67047 76.06255 76.45462 76.8467 77.23877 77.63084 78.02292 78.415 78.80707 79.19914 79.59122 79.9833 80.37538 80.76746 81.15953 81.5516 81.94368 82.33574 82.72781 83.11989 83.51196 83.90404 84.29611 84.68819 85.08026 85.47234 85.86441 86.25648 86.64856 87.04063 87.43272 87.8248 88.21687 88.60895 89.00102 89.3931 89.78517 90.17725 90.56932 90.9614 91.35347 91.74554 92.13762 92.5297 92.92177 93.31384 93.70592 94.09799 94.49007 94.88214 95.27423 95.6663 96.05838 96.45045 96.84253 97.2346 97.62668 98.01875 98.41083 98.80289 99.19496 99.58704 99.97911 100.37119 100.76326 101.15533 101.54741 101.93948 102.33156 102.72365 103.11572 103.5078 103.89987 104.29195 104.68402 105.0761 105.46817 105.86024 106.25232 106.6444 107.03647 107.42854 107.82062 108.21269 108.60477 108.99684 109.38892 109.78099 110.17307 110.56516 110.95723 111.3493 111.74138 112.13345 112.52553 112.9176 113.30968 113.70175 114.09383 114.4859 114.87798 115.27003 115.66211 116.05418 116.44626 116.83833 117.23041 117.62248 118.01457 118.40665 118.79872 119.1908 119.58287 119.97495 120.36702 120.7591 121.15117 121.54324 121.93532 122.3274 122.71947 123.11154 123.50362 123.89569 124.28777 124.67984 125.07191 125.464 125.85608 126.24815 126.64023 127.0323 127.42438 127.81645 128.20853 128.6006 128.99268 129.38475 129.77683 130.1689 130.56098 130.95305 131.34513 131.7372 132.12926 132.52133 132.9134 133.3055 133.69757 134.08965 134.48172 134.8738 135.26587 135.65795 136.05002 136.4421 136.83417 137.22624 137.61832 138.01039 138.40247 138.79454 139.18662 139.57869 139.97077 140.36284 140.75493 141.147 141.53908 141.93115 142.32323 142.7153 143.10738 143.49945 143.89153 144.2836 144.67568 145.06775 145.45983 145.8519 146.24398 146.63605 147.02812 147.4202 147.81227 148.20435 148.59642 148.9885 149.38057 149.77265 150.16472 150.5568 150.94887 151.34095 151.73302 152.12509 152.51717 152.90924 153.30132 153.69339 154.08547 154.47754 154.86962 155.26169 155.65377 156.04586 156.43793"/>
<path transform="matrix(1.00008,0,0,-1.00006,26.344986,155.38938)" stroke-width="1.19553" stroke-linecap="butt" stroke-miterlimit="10" stroke-linejoin="miter" fill="none" stroke="#0000ff" d="M156.43785 76.79126 156.82993 77.79915 157.222 78.80446 157.61408 79.81236 158.00615 80.81831 158.39823 81.82365 158.7903 82.8264 159.18238 83.82982 159.57445 84.83066 159.96652 85.82959 160.3586 86.82532 160.75067 87.81914 161.14275 88.81038 161.53482 89.7997 161.9269 90.7839 162.31897 91.76555 162.71105 92.74274 163.10312 93.71733 163.49521 94.68683 163.88729 95.65118 164.27936 96.613 164.67144 97.56906 165.06349 98.51935 165.45557 99.46451 165.84764 100.40266 166.23972 101.3363 166.63179 102.2642 167.02387 103.1857 167.41594 104.1008 167.80802 105.00757 168.20009 105.90988 168.59217 106.80385 168.98424 107.69016 169.37631 108.56813 169.76839 109.43779 170.16046 110.30104 170.55254 111.15535 170.94461 112.00006 171.3367 112.83708 171.72878 113.66579 172.12085 114.48555 172.51293 115.29568 172.905 116.09431 173.29708 116.88463 173.68915 117.66533 174.08123 118.43517 174.4733 119.19476 174.86537 119.94476 175.25745 120.68259 175.64952 121.41147 176.0416 122.12883 176.43367 122.83403 176.82575 123.52835 177.21782 124.20987 177.6099 124.88051 178.00197 125.53836 178.39405 126.18597 178.78614 126.81949 179.1782 127.44278 179.57028 128.052 179.96236 128.64969 180.35443 129.23458 180.7465 129.80477 181.13858 130.36148 181.53064 130.90543 181.92272 131.43657 182.31479 131.95363 182.70687 132.45789 183.09894 132.94808 183.49102 133.42482 183.88309 133.8875 184.27516 134.3348 184.66724 134.76996 185.05931 135.18782 185.45139 135.59224 185.84346 135.98198 186.23554 136.35697 186.62763 136.7179 187.0197 137.06475 187.41178 137.39559 187.80385 137.71233 188.19593 138.01309 188.588 138.29915 188.98007 138.56984 189.37215 138.82454 189.76422 139.06258 190.1563 139.28719 190.54837 139.49517 190.94045 139.68972 191.33252 139.86696 191.7246 140.02889 192.11667 140.17606 192.50875 140.30725 192.90082 140.4218 193.2929 140.51842 193.68497 140.60161 194.07706 140.66881 194.46913 140.72063 194.8612 140.75583 195.25328 140.77759 195.64536 140.78079 196.03743 140.76927 196.4295 140.74304 196.82158 140.69889 197.21366 140.63872 197.60573 140.56128 197.99779 140.47043 198.38986 140.3642 198.78194 140.24134 199.17401 140.10247 199.56609 139.94889 199.95816 139.77994 200.35024 139.59564 200.74231 139.39534 201.13439 139.1765 201.52648 138.94548 201.91855 138.69719 202.31063 138.43352 202.7027 138.15517 203.09477 137.86336 203.48685 137.55492 203.87892 137.23239 204.271 136.8945 204.66307 136.54126 205.05515 136.17203 205.44722 135.78871 205.8393 135.39133 206.23137 134.9792 206.62345 134.55109 207.01552 134.11083 207.4076 133.65712 207.79967 133.18805 208.19174 132.70555 208.58382 132.20961 208.97589 131.6983 209.36798 131.17357 209.76006 130.63475 210.15213 130.0844 210.5442 129.5187 210.93628 128.9415 211.32836 128.35213 211.72043 127.7493 212.1125 127.13306 212.50458 126.5053 212.89665 125.86473 213.28873 125.21135 213.6808 124.54584 214.07288 123.86879 214.46494 123.18022 214.85701 122.48141 215.24909 121.76984 215.64116 121.04797 216.03324 120.31656 216.42531 119.57169 216.8174 118.81784 217.20948 118.05249 217.60155 117.27562 217.99362 116.48979 218.3857 115.69499 218.77777 114.89061 219.16985 114.07599 219.56192 113.25175 219.954 112.41986 220.34607 111.57898 220.73815 110.7298 221.13022 109.87038 221.5223 109.00328 221.91437 108.12978 222.30644 107.24539 222.69852 106.35527 223.09059 105.45871 223.48267 104.5545 223.87474 103.64389 224.26683 102.72559 224.6589 101.80089 225.05098 100.87044 225.44306 99.93422 225.83513 98.99097 226.2272 98.04326 226.61928 97.0904 227.01136 96.13306 227.40343 95.16933 227.7955 94.20113 228.18758 93.23099 228.57965 92.25446 228.97173 91.27472 229.3638 90.29181 229.75588 89.3044 230.14795 88.31442 230.54003 87.32254 230.93209 86.32745 231.32416 85.32916 231.71623 84.3296 232.10832 83.32875 232.5004 82.3247 232.89247 81.3213 233.28455 80.31534 233.67662 79.30745 234.0687 78.30086 234.46077 77.29424 234.85285 76.28764 235.24492 75.27975 235.637 74.27315 236.02907 73.26717 236.42115 72.2593 236.81322 71.25589 237.20529 70.25377 237.59737 69.25227 237.98944 68.25208 238.38152 67.25443 238.77359 66.25934 239.16567 65.26617 239.55776 64.27618 239.94983 63.29007 240.3419 62.3065 240.73398 61.32742 241.12606 60.35089 241.51813 59.37883 241.9102 58.41127 242.30228 57.44945 242.69435 56.49084 243.08643 55.538 243.4785 54.58963 243.87058 53.64766 244.26265 52.71208 244.65473 51.78035 245.0468 50.85564 245.43888 49.93799 245.83095 49.02673 246.22303 48.12251 246.6151 47.22533 247.00717 46.33583 247.39925 45.4521 247.79132 44.57796 248.1834 43.71086 248.57547 42.8527 248.96755 42.00226 249.35962 41.16139 249.7517 40.32822 250.14377 39.50525 250.53585 38.6919 250.92792 37.88751 251.31999 37.09145 251.71207 36.30562 252.10414 35.53003 252.49622 34.76402 252.88829 34.01021 253.28037 33.26596 253.67244 32.53389 254.06452 31.81078 254.45659 31.10046 254.84868 30.39973 255.24076 29.71245 255.63283 29.03604 256.0249 28.37117 256.417 27.71779 256.80906 27.07594 257.20115 26.44818 257.5932 25.83322 257.9853 25.22975 258.37736 24.63974 258.7694 24.06317 259.1615 23.49812 259.55357 22.9465 259.94566 22.40895 260.3377 21.88422 260.7298 21.37291 261.12187 20.87569 261.51396 20.39319 261.906 19.9254 262.2981 19.47041 262.6902 19.03015 263.08226 18.6033 263.47434 18.1912 263.8664 17.79317 264.25849 17.41048 264.65055 17.04126 265.04264 16.688 265.4347 16.35013 265.82679 16.02696 266.21885 15.71916 266.61094 15.42735 267.003 15.14899 267.39509 14.88533 267.78715 14.63704 268.1792 14.40475 268.5713 14.18782 268.96336 13.98688 269.35545 13.80258 269.7475 13.63362 270.1396 13.4794 270.53169 13.34055 270.92375 13.21768 271.31584 13.11209 271.7079 13.02122 272.09999 12.94379 272.49205 12.88364 272.88414 12.83948 273.2762 12.81323 273.66828 12.80173 274.06037 12.80492 274.45243 12.82669 274.8445 12.86188 275.23658 12.91371 275.62867 12.98091 276.02073 13.06346 276.4128 13.162 276.80488 13.27527 277.19697 13.40646 277.58906 13.55429 277.9811 13.71619 278.37318 13.89409 278.76527 14.08734 279.15733 14.29596 279.5494 14.51993 279.94148 14.75798 280.33354 15.01396 280.72563 15.28336 281.11769 15.56941 281.50978 15.8702 281.90184 16.18694 282.2939 16.51907 282.686 16.86526 283.07807 17.22556 283.47016 17.60054 283.8622 17.99026 284.2543 18.39532 284.64637 18.81384 285.03846 19.24773 285.43055 19.69632 285.8226 20.15897 286.2147 20.63445 286.60676 21.12463 286.99885 21.62953 287.3909 22.14595 287.78297 22.6771 288.17506 23.2223 288.5671 23.77904 288.9592 24.34921 289.35127 24.93283 289.74336 25.53052 290.1354 26.14102 290.5275 26.76303 290.91957 27.39847 291.31166 28.04416 291.7037 28.7033 292.0958 29.37392 292.48789 30.05417 292.87998 30.74849 293.27204 31.45433 293.66413 32.17232 294.05619 32.89993 294.44828 33.63904 294.84034 34.38776 295.2324 35.14734 295.62449 35.91783 296.01658 36.69917 296.40864 37.48885 296.8007 38.28683 297.19276 39.09697 297.58485 39.91737 297.9769 40.7467 298.369 41.58244 298.76106 42.4278 299.15315 43.28339 299.5452 44.14473 299.9373 45.01567 300.32939 45.89365 300.72145 46.78123 301.11354 47.6733 301.5056 48.57559 301.89768 49.48363 302.28977 50.39746 302.68183 51.3196 303.0739 52.24748 303.46598 53.18051 303.85807 54.11992 304.25013 55.06445 304.6422 56.0141 305.03428 56.97015 305.42637 57.93132 305.81843 58.89697 306.2105 59.86646 306.60258 60.84106 306.99464 61.81824 307.38673 62.79988 307.7788 63.78474 308.17088 64.77342 308.56297 65.76404 308.95503 66.75848 309.3471 67.75421 309.73918 68.75185 310.13127 69.75398 310.52333 70.7561 310.9154 71.7595 311.3075 72.76547 311.69956 73.7708 312.09165 74.77869 312.4837 75.78465 312.8758 76.79254"/>
<path transform="matrix(1.00008,0,0,-1.00006,26.344986,155.38938)" stroke-width="1.19553" stroke-linecap="butt" stroke-dasharray="2.98883,2.98883" stroke-miterlimit="10" stroke-linejoin="miter" fill="none" stroke="#ff0000" d="M156.43785 0V153.58254"/>
</g>
<use data-text="t" xlink:href="#font_1_4" transform="matrix(9.963397,0,0,-9.963197,342.96833,75.06356)"/>
<use data-text="y" xlink:href="#font_1_6" transform="matrix(9.963397,0,0,-9.963197,29.865265,12.767822)"/>
<use data-text="(" xlink:href="#font_2_1" transform="matrix(9.963397,0,0,-9.963197,35.10669,12.767822)"/>
<use data-text="t" xlink:href="#font_1_4" transform="matrix(9.963397,0,0,-9.963197,38.981996,12.767822)"/>
<use data-text=")" xlink:href="#font_2_2" transform="matrix(9.963397,0,0,-9.963197,42.579286,12.767822)"/>
<path transform="matrix(1.00008,0,0,-1.00006,26.344986,155.38938)" d="M161.15106 132.42943H316.9973V150.31096H161.15106Z" fill="#ffffff"/>
<path transform="matrix(1.00008,0,0,-1.00006,26.344986,155.38938)" stroke-width=".3985" stroke-linecap="butt" stroke-miterlimit="10" stroke-linejoin="miter" fill="none" stroke="#000000" d="M161.15106 132.42943H316.9973V150.31096H161.15106Z"/>
<path transform="matrix(1.00008,0,0,-1.00006,191.09516,14.010895)" stroke-width="1.19553" stroke-linecap="butt" stroke-miterlimit="10" stroke-linejoin="miter" fill="none" stroke="#0000ff" d="M0 0H8.50412 17.00826"/>
<use data-text="y" xlink:href="#font_1_6" transform="matrix(9.963397,0,0,-9.963197,210.69475,17.4721)"/>
<use data-text="(" xlink:href="#font_2_1" transform="matrix(9.963397,0,0,-9.963197,215.93717,17.4721)"/>
<use data-text="t" xlink:href="#font_1_4" transform="matrix(9.963397,0,0,-9.963197,219.81148,17.4721)"/>
<use data-text=")" xlink:href="#font_2_2" transform="matrix(9.963397,0,0,-9.963197,223.40976,17.4721)"/>
<use data-text="=" xlink:href="#font_2_7" transform="matrix(9.963397,0,0,-9.963197,230.03543,17.4721)"/>
<use data-text="1" xlink:href="#font_5_1" transform="matrix(6.974358,0,0,-6.9742186,241.76422,13.548866)"/>
<path transform="matrix(1.00008,0,0,-1.00006,-15.145325,-121.72625)" stroke-width=".3985" stroke-linecap="butt" stroke-miterlimit="10" stroke-linejoin="miter" fill="none" stroke="#000000" d="M256.889-136.699H260.86"/>
<use data-text="2" xlink:href="#font_5_2" transform="matrix(6.974358,0,0,-6.9742186,241.76422,20.907296)"/>
<use data-text="s" xlink:href="#font_2_10" transform="matrix(9.963397,0,0,-9.963197,248.59177,17.4721)"/>
<use data-text="i" xlink:href="#font_2_8" transform="matrix(9.963397,0,0,-9.963197,252.51737,17.4721)"/>
<use data-text="n" xlink:href="#font_2_9" transform="matrix(9.963397,0,0,-9.963197,255.27722,17.4721)"/>
<use data-text="(" xlink:href="#font_2_1" transform="matrix(9.963397,0,0,-9.963197,260.8069,17.4721)"/>
<use data-text="2" xlink:href="#font_2_4" transform="matrix(9.963397,0,0,-9.963197,264.67268,17.4721)"/>
<use data-text="(" xlink:href="#font_2_1" transform="matrix(9.963397,0,0,-9.963197,269.65437,17.4721)"/>
<use data-text="t" xlink:href="#font_1_4" transform="matrix(9.963397,0,0,-9.963197,273.5558,17.4721)"/>
<use data-text="&#x2212;" xlink:href="#font_3_1" transform="matrix(9.963397,0,0,-9.963197,279.36827,17.4721)"/>
<use data-text="&#x03c0;" xlink:href="#font_1_1" transform="matrix(9.963397,0,0,-9.963197,289.33106,17.4721)"/>
<use data-text=")" xlink:href="#font_2_2" transform="matrix(9.963397,0,0,-9.963197,295.36854,17.4721)"/>
<use data-text=")" xlink:href="#font_2_2" transform="matrix(9.963397,0,0,-9.963197,299.2343,17.4721)"/>
<use data-text="u" xlink:href="#font_1_5" transform="matrix(9.963397,0,0,-9.963197,303.11714,17.4721)"/>
<use data-text="(" xlink:href="#font_2_1" transform="matrix(9.963397,0,0,-9.963197,308.8216,17.4721)"/>
<use data-text="t" xlink:href="#font_1_4" transform="matrix(9.963397,0,0,-9.963197,312.6959,17.4721)"/>
<use data-text="&#x2212;" xlink:href="#font_3_1" transform="matrix(9.963397,0,0,-9.963197,318.50736,17.4721)"/>
<use data-text="&#x03c0;" xlink:href="#font_1_1" transform="matrix(9.963397,0,0,-9.963197,328.4712,17.4721)"/>
<use data-text=")" xlink:href="#font_2_2" transform="matrix(9.963397,0,0,-9.963197,334.50767,17.4721)"/>
</svg>
